<?xml version="1.0" encoding="utf-8"?>
<!-- Generator: Adobe Illustrator 27.5.0, SVG Export Plug-In . SVG Version: 6.00 Build 0)  -->
<svg version="1.1" xmlns="http://www.w3.org/2000/svg" xmlns:xlink="http://www.w3.org/1999/xlink" x="0px" y="0px"
	 viewBox="0 0 500 500" style="enable-background:new 0 0 500 500;" xml:space="preserve">
<g id="Floor">
	
		<line style="fill:none;stroke:#263238;stroke-width:2.5;stroke-linecap:round;stroke-linejoin:round;stroke-miterlimit:10;" x1="27.564" y1="455.961" x2="484.826" y2="455.961"/>
</g>
<g id="Planet">
	<g>
		
			<path style="fill:#FFFFFF;stroke:#EC644E;stroke-width:2.5;stroke-linecap:round;stroke-linejoin:round;stroke-miterlimit:10;" d="
			M88.067,142.228c7.729,10.088,5.817,24.531-4.271,32.26c-10.088,7.729-24.531,5.816-32.26-4.271
			c-7.729-10.088-5.816-24.531,4.271-32.26C65.894,130.228,80.338,132.14,88.067,142.228z"/>
		<path style="fill:none;stroke:#EC644E;stroke-width:2.5;stroke-linecap:round;stroke-linejoin:round;stroke-miterlimit:10;" d="
			M47.751,149.643c7.253-4.493,17.508-1.258,21.906-3.672c4.398-2.413,9.143-10.931,9.143-10.931"/>
		<path style="fill:none;stroke:#EC644E;stroke-width:2.5;stroke-linecap:round;stroke-linejoin:round;stroke-miterlimit:10;" d="
			M47.428,161.615c13.337-0.577,18.62-8.456,22.899-11.441c6.351-4.43,10.464-3.006,15.319-10.643"/>
		<path style="fill:none;stroke:#EC644E;stroke-width:2.5;stroke-linecap:round;stroke-linejoin:round;stroke-miterlimit:10;" d="
			M51.831,170.594c7.21-2.12,8.771-7.487,15.223-12.876c6.452-5.39,14.571-3.446,23.212-12.017"/>
		<path style="fill:none;stroke:#EC644E;stroke-width:2.5;stroke-linecap:round;stroke-linejoin:round;stroke-miterlimit:10;" d="
			M60.505,177.275c0,0,1.131-8.076,6.881-13.883c6.858-6.927,18.744-4.089,25.406-8.115"/>
		<path style="fill:none;stroke:#EC644E;stroke-width:2.5;stroke-linecap:round;stroke-linejoin:round;stroke-miterlimit:10;" d="
			M66.3,178.964c0.449-0.678-0.507-9.14,4.823-13.166c5.33-4.026,14.733,2.014,19.301,0.639"/>
		<path style="fill:none;stroke:#EC644E;stroke-width:2.5;stroke-linecap:round;stroke-linejoin:round;stroke-miterlimit:10;" d="
			M67.909,137.497c0.391,0.688,0.05,1.619-0.76,2.08c-0.811,0.461-1.785,0.277-2.176-0.411c-0.391-0.688-0.051-1.619,0.76-2.08
			C66.544,136.625,67.518,136.809,67.909,137.497z"/>
		<path style="fill:none;stroke:#EC644E;stroke-width:2.5;stroke-linecap:round;stroke-linejoin:round;stroke-miterlimit:10;" d="
			M58.587,171.669c-0.391-0.33-0.393-0.972-0.003-1.433c0.39-0.461,1.022-0.567,1.414-0.237c0.391,0.33,0.393,0.972,0.003,1.433
			C59.611,171.893,58.979,171.999,58.587,171.669z"/>
		<path style="fill:none;stroke:#EC644E;stroke-width:2.5;stroke-linecap:round;stroke-linejoin:round;stroke-miterlimit:10;" d="
			M63.347,143.9c-0.327-0.276-0.328-0.811-0.003-1.196s0.853-0.473,1.18-0.198s0.328,0.811,0.003,1.197
			C64.202,144.088,63.673,144.176,63.347,143.9z"/>
		<path style="fill:none;stroke:#EC644E;stroke-width:2.5;stroke-linecap:round;stroke-linejoin:round;stroke-miterlimit:10;" d="
			M87.544,161.765c-0.326-0.276-0.328-0.811-0.003-1.196c0.325-0.385,0.853-0.473,1.18-0.198s0.328,0.811,0.003,1.196
			C88.398,161.952,87.87,162.041,87.544,161.765z"/>
		<g>
			
				<path style="fill:#FFFFFF;stroke:#EC644E;stroke-width:2.5;stroke-linecap:round;stroke-linejoin:round;stroke-miterlimit:10;" d="
				M112.747,140.117c1.214,3.014-6.948,9.353-19.94,16.107c-5.678,2.958-12.282,5.997-19.429,8.875
				c-7.153,2.881-14.019,5.267-20.163,7.069c-14.049,4.128-24.318,5.218-25.532,2.204c-1.194-2.965,6.65-9.118,19.229-15.742
				c0.068,0.666,0.163,1.328,0.3,1.988c0.54,2.814,1.626,5.564,3.263,8.086c5.903-1.369,13.466-3.8,21.517-7.042
				s15.188-6.731,20.393-9.835c-0.54-2.814-1.623-5.558-3.263-8.086c-0.327-0.511-0.682-1.019-1.059-1.511
				c-0.032-0.044-0.07-0.086-0.102-0.13C101.628,138.155,111.553,137.153,112.747,140.117z"/>
			
				<path style="fill:#FFFFFF;stroke:#EC644E;stroke-width:2.5;stroke-linecap:round;stroke-linejoin:round;stroke-miterlimit:10;" d="
				M50.476,168.703c-6.789,1.583-11.388,1.755-12.034,0.15c-0.649-1.611,2.788-4.668,8.771-8.236
				C47.753,163.431,48.839,166.182,50.476,168.703z"/>
			
				<path style="fill:#FFFFFF;stroke:#EC644E;stroke-width:2.5;stroke-linecap:round;stroke-linejoin:round;stroke-miterlimit:10;" d="
				M101.166,143.594c0.646,1.605-2.788,4.668-8.78,8.232c-0.54-2.814-1.623-5.558-3.263-8.086
				C95.913,142.157,100.517,141.983,101.166,143.594z"/>
		</g>
	</g>
</g>
<g id="Gear">
	<g>
		<path style="fill:none;stroke:#9ABAE3;stroke-width:2.5;stroke-linecap:round;stroke-linejoin:round;stroke-miterlimit:10;" d="
			M231.488,59.176c0.548,0.413,1.136,0.79,1.755,1.122c0.624,0.335,1.259,0.615,1.905,0.839l0.135,4.352l9.495-0.295l-0.135-4.369
			l0,0c1.272-0.529,2.461-1.261,3.521-2.172l3.841,2.06l4.491-8.374l-3.84-2.06c0.172-1.387,0.124-2.784-0.138-4.136l3.713-2.305
			l-5.007-8.072l-3.718,2.303c-0.536-0.421-1.122-0.793-1.738-1.124c-0.617-0.33-1.249-0.612-1.905-0.829l-0.132-4.369l-9.495,0.295
			l0.138,4.362c-1.272,0.53-2.462,1.267-3.525,2.18c0,0,0,0,0,0l-3.84-2.059l-4.491,8.374l3.842,2.061c0,0,0,0,0,0
			c-0.175,1.389-0.129,2.788,0.133,4.142v0l-3.709,2.298l5.007,8.072L231.488,59.176z M231.642,49.352
			c-0.175-8.599,10.206-11.733,14.819-4.473c0.572,0.9,0.887,1.949,0.906,3.015c0.152,8.592-10.183,11.712-14.81,4.47
			C231.982,51.466,231.664,50.418,231.642,49.352z"/>
	</g>
</g>
<g id="Rocket">
	<g>
		<g>
			<g>
				<path style="fill:#EC644E;" d="M186.375,106.593l-25.395,19.026c0,0-22.823-23.999-38.468-45.933
					c-10.67-14.957-0.228-32.179-0.228-32.179s19.463-5.182,30.819,9.261C169.751,77.95,186.375,106.593,186.375,106.593z"/>
				<path style="fill:#FFFFFF;" d="M186.377,106.593l-25.399,19.028c0,0-0.085-0.088-0.249-0.263l22.559-16.903
					c0,0-16.626-28.646-33.274-49.826c-8.963-11.396-22.971-10.57-28.483-9.72c0.449-0.907,0.754-1.404,0.754-1.404
					s19.46-5.179,30.818,9.263C169.751,77.948,186.377,106.593,186.377,106.593z"/>
				<path style="fill:none;stroke:#263238;stroke-width:2.5;stroke-linecap:round;stroke-linejoin:round;stroke-miterlimit:10;" d="
					M186.375,106.593l-25.395,19.026c0,0-22.823-23.999-38.468-45.933c-10.67-14.957-0.228-32.179-0.228-32.179
					s19.463-5.182,30.819,9.261C169.751,77.95,186.375,106.593,186.375,106.593z"/>
			</g>
			
				<rect x="166.145" y="115.77" transform="matrix(0.8003 -0.5996 0.5996 0.8003 -35.5404 128.1926)" style="fill:#9ABAE3;stroke:#263238;stroke-width:2.5;stroke-linecap:round;stroke-linejoin:round;stroke-miterlimit:10;" width="17.083" height="3.367"/>
			
				<polygon style="fill:#EC644E;stroke:#263238;stroke-width:2.5;stroke-linecap:round;stroke-linejoin:round;stroke-miterlimit:10;" points="
				189.405,118.648 171.697,131.914 168.86,123.922 182.532,113.679 			"/>
			<g>
				
					<line style="fill:none;stroke:#263238;stroke-width:2.5;stroke-linecap:round;stroke-linejoin:round;stroke-miterlimit:10;" x1="145.723" y1="78.793" x2="173.677" y2="116.106"/>
				<path style="fill:#263238;" d="M156.53,83.661c0.451,0.602,0.329,1.456-0.273,1.907c-0.602,0.451-1.456,0.329-1.907-0.274
					c-0.451-0.602-0.329-1.456,0.273-1.907S156.079,83.059,156.53,83.661z"/>
				<path style="fill:#263238;" d="M165.768,95.992c0.451,0.602,0.329,1.456-0.273,1.907c-0.602,0.451-1.456,0.329-1.907-0.274
					c-0.451-0.602-0.329-1.456,0.274-1.907C164.463,95.267,165.317,95.389,165.768,95.992z"/>
				<path style="fill:#263238;" d="M175.005,108.322c0.451,0.602,0.329,1.456-0.273,1.907c-0.602,0.451-1.456,0.329-1.907-0.273
					c-0.451-0.602-0.329-1.456,0.273-1.907C173.7,107.597,174.554,107.719,175.005,108.322z"/>
			</g>
			<g>
				
					<ellipse transform="matrix(0.3439 -0.939 0.939 0.3439 25.2972 177.3527)" style="fill:#263238;stroke:#263238;stroke-width:2.5;stroke-linecap:round;stroke-linejoin:round;stroke-miterlimit:10;" cx="139.564" cy="70.573" rx="10.271" ry="10.271"/>
				
					<path style="fill:#9ABAE3;stroke:#263238;stroke-width:2.5;stroke-linecap:round;stroke-linejoin:round;stroke-miterlimit:10;" d="
					M147.063,64.956c3.102,4.141,2.26,10.013-1.881,13.116c-4.141,3.103-10.013,2.26-13.116-1.881
					c-3.103-4.141-2.261-10.013,1.881-13.116C138.088,59.973,143.96,60.815,147.063,64.956z"/>
				
					<line style="fill:none;stroke:#FFFFFF;stroke-width:2.5;stroke-linecap:round;stroke-linejoin:round;stroke-miterlimit:10;" x1="137.749" y1="76.977" x2="139.551" y2="64.407"/>
				
					<line style="fill:none;stroke:#FFFFFF;stroke-width:2.5;stroke-linecap:round;stroke-linejoin:round;stroke-miterlimit:10;" x1="141.713" y1="72.828" x2="142.274" y2="68.915"/>
			</g>
			
				<polygon style="fill:#263238;stroke:#263238;stroke-width:2.5;stroke-linecap:round;stroke-linejoin:round;stroke-miterlimit:10;" points="
				108.27,28.802 121.682,47.958 122.885,47.056 			"/>
			<g>
				
					<path style="fill:#263238;stroke:#263238;stroke-width:2.5;stroke-linecap:round;stroke-linejoin:round;stroke-miterlimit:10;" d="
					M139.951,98.833l19.939,21.775l2.546,26.334C162.435,146.943,132.55,132.488,139.951,98.833z"/>
				
					<path style="fill:#263238;stroke:#263238;stroke-width:2.5;stroke-linecap:round;stroke-linejoin:round;stroke-miterlimit:10;" d="
					M166.577,78.885l15.295,25.254l24.558,9.843C206.43,113.982,200.955,81.24,166.577,78.885z"/>
			</g>
		</g>
		<g>
			<path style="fill:none;stroke:#EC644E;stroke-width:2.5;stroke-linecap:round;stroke-linejoin:round;stroke-miterlimit:10;" d="
				M180.548,133.617c9.06,24.991,20.985,31.769,23.941,40.558c5.649,16.796-6.078,29.477-9.115,40.043
				c-3.936,13.697-2.827,23.564-3.317,32.469"/>
			<path style="fill:none;stroke:#EC644E;stroke-width:2.5;stroke-linecap:round;stroke-linejoin:round;stroke-miterlimit:10;" d="
				M185.232,130.107c8.099,16.818,22.021,27.839,27.963,39.805c7.487,15.08-1.997,33.407-3.447,44.306
				c-1.985,14.924,3.663,24.973,4.914,37.448"/>
			<path style="fill:none;stroke:#EC644E;stroke-width:2.5;stroke-linecap:round;stroke-linejoin:round;stroke-miterlimit:10;" d="
				M189.981,126.55c0,0,8.205,12.418,18.042,20.933c12.193,10.555,19.87,19.949,21.526,31.602
				c1.655,11.654-2.105,25.035-2.258,33.497c-0.109,5.99,1.726,12.001,4.346,17.998"/>
		</g>
		<g>
			<g>
				<path style="fill:#EC644E;" d="M192.573,193.603L192.573,193.603c0.331,2.414,2.229,4.313,4.643,4.643l0,0l0,0
					c-2.414,0.331-4.312,2.229-4.643,4.643l0,0l0,0c-0.331-2.414-2.229-4.312-4.644-4.643l0,0l0,0
					C190.344,197.915,192.242,196.017,192.573,193.603L192.573,193.603z"/>
			</g>
			<g>
				<path style="fill:#EC644E;" d="M263.267,261.892L263.267,261.892c0.331,2.414,2.229,4.312,4.643,4.643l0,0l0,0
					c-2.414,0.331-4.313,2.229-4.643,4.643l0,0l0,0c-0.331-2.414-2.229-4.312-4.644-4.643l0,0l0,0
					C261.038,266.205,262.936,264.306,263.267,261.892L263.267,261.892z"/>
			</g>
			<g>
				<path style="fill:#EC644E;" d="M207.078,132.851L207.078,132.851c0.331,2.414,2.229,4.313,4.643,4.643l0,0l0,0
					c-2.414,0.331-4.313,2.229-4.643,4.644l0,0l0,0c-0.331-2.414-2.229-4.313-4.644-4.644l0,0l0,0
					C204.849,137.163,206.747,135.265,207.078,132.851L207.078,132.851z"/>
			</g>
			<g>
				<path style="fill:#EC644E;" d="M175.606,137.494L175.606,137.494c0.189,1.381,1.275,2.467,2.656,2.656l0,0l0,0
					c-1.381,0.189-2.467,1.275-2.656,2.656l0,0l0,0c-0.189-1.381-1.275-2.467-2.656-2.656l0,0l0,0
					C174.331,139.961,175.417,138.875,175.606,137.494L175.606,137.494z"/>
			</g>
			<g>
				<path style="fill:#EC644E;" d="M201.43,217.249L201.43,217.249c0.189,1.381,1.275,2.467,2.656,2.656l0,0l0,0
					c-1.381,0.189-2.467,1.275-2.656,2.656l0,0l0,0c-0.189-1.381-1.275-2.467-2.656-2.656l0,0l0,0
					C200.155,219.716,201.241,218.63,201.43,217.249L201.43,217.249z"/>
			</g>
			<g>
				<path style="fill:#EC644E;" d="M256.065,282.184L256.065,282.184c0.189,1.381,1.275,2.467,2.656,2.656l0,0l0,0
					c-1.381,0.189-2.467,1.275-2.656,2.656l0,0l0,0c-0.189-1.381-1.275-2.467-2.656-2.656l0,0l0,0
					C254.79,284.651,255.876,283.565,256.065,282.184L256.065,282.184z"/>
			</g>
		</g>
	</g>
</g>
<g id="Tabs">
	<g>
		<g>
			
				<path style="fill:#FFFFFF;stroke:#263238;stroke-width:2.5;stroke-linecap:round;stroke-linejoin:round;stroke-miterlimit:10;" d="
				M451.331,140.574H324.349c-2.765,0-5.007-2.242-5.007-5.007V42.949c0-2.766,2.242-5.007,5.008-5.007h126.982
				c2.766,0,5.007,2.242,5.007,5.007v92.617C456.339,138.332,454.097,140.574,451.331,140.574z"/>
			
				<line style="fill:none;stroke:#263238;stroke-width:2.5;stroke-linecap:round;stroke-linejoin:round;stroke-miterlimit:10;" x1="319.783" y1="53.528" x2="450.72" y2="53.528"/>
			<circle style="fill:#EC644E;" cx="328.835" cy="46.057" r="2.56"/>
			<circle style="fill:#9ABAE3;" cx="340.086" cy="46.057" r="2.56"/>
			<path style="fill:#263238;" d="M353.898,46.057c0,1.414-1.146,2.56-2.56,2.56s-2.56-1.146-2.56-2.56
				c0-1.414,1.146-2.56,2.56-2.56S353.898,44.643,353.898,46.057z"/>
			<g>
				
					<line style="fill:none;stroke:#263238;stroke-width:2.5;stroke-linecap:round;stroke-linejoin:round;stroke-miterlimit:10;" x1="330.407" y1="64.126" x2="335.629" y2="64.126"/>
				
					<line style="fill:none;stroke:#263238;stroke-width:2.5;stroke-linecap:round;stroke-linejoin:round;stroke-miterlimit:10;" x1="330.42" y1="76.369" x2="335.616" y2="76.369"/>
				
					<line style="fill:none;stroke:#263238;stroke-width:2.5;stroke-linecap:round;stroke-linejoin:round;stroke-miterlimit:10;" x1="330.42" y1="82.406" x2="335.616" y2="82.406"/>
				
					<line style="fill:none;stroke:#263238;stroke-width:2.5;stroke-linecap:round;stroke-linejoin:round;stroke-miterlimit:10;" x1="330.42" y1="88.443" x2="335.616" y2="88.443"/>
				
					<line style="fill:none;stroke:#263238;stroke-width:2.5;stroke-linecap:round;stroke-linejoin:round;stroke-miterlimit:10;" x1="330.42" y1="94.48" x2="335.616" y2="94.48"/>
				
					<line style="fill:none;stroke:#263238;stroke-width:2.5;stroke-linecap:round;stroke-linejoin:round;stroke-miterlimit:10;" x1="330.42" y1="100.518" x2="335.616" y2="100.518"/>
				
					<line style="fill:none;stroke:#263238;stroke-width:2.5;stroke-linecap:round;stroke-linejoin:round;stroke-miterlimit:10;" x1="330.42" y1="106.555" x2="335.616" y2="106.555"/>
				
					<line style="fill:none;stroke:#263238;stroke-width:2.5;stroke-linecap:round;stroke-linejoin:round;stroke-miterlimit:10;" x1="330.42" y1="112.592" x2="335.616" y2="112.592"/>
				
					<line style="fill:none;stroke:#263238;stroke-width:2.5;stroke-linecap:round;stroke-linejoin:round;stroke-miterlimit:10;" x1="330.42" y1="118.629" x2="335.616" y2="118.629"/>
				
					<line style="fill:none;stroke:#263238;stroke-width:2.5;stroke-linecap:round;stroke-linejoin:round;stroke-miterlimit:10;" x1="330.42" y1="124.666" x2="335.616" y2="124.666"/>
				
					<line style="fill:none;stroke:#263238;stroke-width:2.5;stroke-linecap:round;stroke-linejoin:round;stroke-miterlimit:10;" x1="330.42" y1="130.704" x2="335.616" y2="130.704"/>
				
					<line style="fill:none;stroke:#EC644E;stroke-width:2.5;stroke-linecap:round;stroke-linejoin:round;stroke-miterlimit:10;" x1="343.526" y1="76.369" x2="372.173" y2="76.369"/>
				
					<line style="fill:none;stroke:#9ABAE3;stroke-width:2.5;stroke-linecap:round;stroke-linejoin:round;stroke-miterlimit:10;" x1="379.698" y1="76.369" x2="390.547" y2="76.369"/>
				
					<line style="fill:none;stroke:#263238;stroke-width:2.5;stroke-linecap:round;stroke-linejoin:round;stroke-miterlimit:10;" x1="397.483" y1="106.555" x2="408.331" y2="106.555"/>
				
					<line style="fill:none;stroke:#263238;stroke-width:2.5;stroke-linecap:round;stroke-linejoin:round;stroke-miterlimit:10;" x1="406.688" y1="130.704" x2="417.537" y2="130.704"/>
				
					<line style="fill:none;stroke:#263238;stroke-width:2.5;stroke-linecap:round;stroke-linejoin:round;stroke-miterlimit:10;" x1="397.483" y1="76.369" x2="408.331" y2="76.369"/>
				
					<line style="fill:none;stroke:#EC644E;stroke-width:2.5;stroke-linecap:round;stroke-linejoin:round;stroke-miterlimit:10;" x1="379.698" y1="88.443" x2="394.762" y2="88.443"/>
				
					<line style="fill:none;stroke:#EC644E;stroke-width:2.5;stroke-linecap:round;stroke-linejoin:round;stroke-miterlimit:10;" x1="343.526" y1="82.406" x2="376.832" y2="82.406"/>
				
					<line style="fill:none;stroke:#9ABAE3;stroke-width:2.5;stroke-linecap:round;stroke-linejoin:round;stroke-miterlimit:10;" x1="369.299" y1="112.592" x2="402.605" y2="112.592"/>
				
					<line style="fill:none;stroke:#9ABAE3;stroke-width:2.5;stroke-linecap:round;stroke-linejoin:round;stroke-miterlimit:10;" x1="375.025" y1="124.666" x2="408.331" y2="124.666"/>
				
					<line style="fill:none;stroke:#263238;stroke-width:2.5;stroke-linecap:round;stroke-linejoin:round;stroke-miterlimit:10;" x1="383.251" y1="118.629" x2="416.557" y2="118.629"/>
				
					<line style="fill:none;stroke:#263238;stroke-width:2.5;stroke-linecap:round;stroke-linejoin:round;stroke-miterlimit:10;" x1="410.617" y1="100.518" x2="443.924" y2="100.518"/>
				
					<line style="fill:none;stroke:#9ABAE3;stroke-width:2.5;stroke-linecap:round;stroke-linejoin:round;stroke-miterlimit:10;" x1="343.526" y1="88.443" x2="372.173" y2="88.443"/>
				
					<line style="fill:none;stroke:#EC644E;stroke-width:2.5;stroke-linecap:round;stroke-linejoin:round;stroke-miterlimit:10;" x1="343.526" y1="94.48" x2="362.407" y2="94.48"/>
				
					<line style="fill:none;stroke:#EC644E;stroke-width:2.5;stroke-linecap:round;stroke-linejoin:round;stroke-miterlimit:10;" x1="410.574" y1="112.592" x2="429.455" y2="112.592"/>
				
					<line style="fill:none;stroke:#9ABAE3;stroke-width:2.5;stroke-linecap:round;stroke-linejoin:round;stroke-miterlimit:10;" x1="410.617" y1="82.406" x2="429.498" y2="82.406"/>
				
					<line style="fill:none;stroke:#263238;stroke-width:2.5;stroke-linecap:round;stroke-linejoin:round;stroke-miterlimit:10;" x1="369.299" y1="94.48" x2="388.18" y2="94.48"/>
				
					<line style="fill:none;stroke:#263238;stroke-width:2.5;stroke-linecap:round;stroke-linejoin:round;stroke-miterlimit:10;" x1="415.612" y1="124.666" x2="434.494" y2="124.666"/>
				
					<line style="fill:none;stroke:#263238;stroke-width:2.5;stroke-linecap:round;stroke-linejoin:round;stroke-miterlimit:10;" x1="384.026" y1="82.406" x2="402.907" y2="82.406"/>
				
					<line style="fill:none;stroke:#263238;stroke-width:2.5;stroke-linecap:round;stroke-linejoin:round;stroke-miterlimit:10;" x1="401.854" y1="88.443" x2="420.735" y2="88.443"/>
				
					<line style="fill:none;stroke:#9ABAE3;stroke-width:2.5;stroke-linecap:round;stroke-linejoin:round;stroke-miterlimit:10;" x1="343.526" y1="100.518" x2="376.832" y2="100.518"/>
				
					<line style="fill:none;stroke:#9ABAE3;stroke-width:2.5;stroke-linecap:round;stroke-linejoin:round;stroke-miterlimit:10;" x1="395.459" y1="94.48" x2="428.766" y2="94.48"/>
				
					<line style="fill:none;stroke:#EC644E;stroke-width:2.5;stroke-linecap:round;stroke-linejoin:round;stroke-miterlimit:10;" x1="384.026" y1="100.518" x2="403.869" y2="100.518"/>
				
					<line style="fill:none;stroke:#EC644E;stroke-width:2.5;stroke-linecap:round;stroke-linejoin:round;stroke-miterlimit:10;" x1="379.698" y1="130.704" x2="399.542" y2="130.704"/>
				
					<line style="fill:none;stroke:#EC644E;stroke-width:2.5;stroke-linecap:round;stroke-linejoin:round;stroke-miterlimit:10;" x1="343.526" y1="106.555" x2="390.547" y2="106.555"/>
				
					<line style="fill:none;stroke:#EC644E;stroke-width:2.5;stroke-linecap:round;stroke-linejoin:round;stroke-miterlimit:10;" x1="343.526" y1="112.592" x2="362.407" y2="112.592"/>
				
					<line style="fill:none;stroke:#9ABAE3;stroke-width:2.5;stroke-linecap:round;stroke-linejoin:round;stroke-miterlimit:10;" x1="343.526" y1="118.629" x2="376.832" y2="118.629"/>
				
					<line style="fill:none;stroke:#EC644E;stroke-width:2.5;stroke-linecap:round;stroke-linejoin:round;stroke-miterlimit:10;" x1="343.526" y1="124.666" x2="368.407" y2="124.666"/>
				
					<line style="fill:none;stroke:#9ABAE3;stroke-width:2.5;stroke-linecap:round;stroke-linejoin:round;stroke-miterlimit:10;" x1="343.526" y1="130.704" x2="372.173" y2="130.704"/>
			</g>
		</g>
		<g>
			
				<path style="fill:#FFFFFF;stroke:#263238;stroke-width:2.5;stroke-linecap:round;stroke-linejoin:round;stroke-miterlimit:10;" d="
				M408.068,246.728H229.252c-2.766,0-5.007-2.242-5.007-5.007V94.265c0-2.765,2.242-5.007,5.007-5.007h178.816
				c2.766,0,5.007,2.242,5.007,5.007V241.72C413.076,244.486,410.834,246.728,408.068,246.728z"/>
			
				<line style="fill:none;stroke:#263238;stroke-width:2.5;stroke-linecap:round;stroke-linejoin:round;stroke-miterlimit:10;" x1="224.687" y1="104.843" x2="407.457" y2="104.843"/>
			<path style="fill:#EC644E;" d="M236.299,97.373c0,1.414-1.146,2.56-2.56,2.56c-1.414,0-2.56-1.146-2.56-2.56
				c0-1.414,1.146-2.56,2.56-2.56C235.153,94.812,236.299,95.959,236.299,97.373z"/>
			<path style="fill:#9ABAE3;" d="M247.55,97.373c0,1.414-1.146,2.56-2.56,2.56s-2.56-1.146-2.56-2.56c0-1.414,1.146-2.56,2.56-2.56
				S247.55,95.959,247.55,97.373z"/>
			<path style="fill:#263238;" d="M258.802,97.373c0,1.414-1.146,2.56-2.56,2.56c-1.414,0-2.56-1.146-2.56-2.56
				c0-1.414,1.146-2.56,2.56-2.56C257.655,94.812,258.802,95.959,258.802,97.373z"/>
			<g>
				<g>
					<rect x="243.371" y="226.523" style="fill:#EC644E;" width="6.496" height="6.496"/>
					
						<line style="fill:none;stroke:#263238;stroke-width:2.5;stroke-linecap:round;stroke-linejoin:round;stroke-miterlimit:10;" x1="256.065" y1="227.472" x2="278.179" y2="227.472"/>
					
						<line style="fill:none;stroke:#263238;stroke-width:2.5;stroke-linecap:round;stroke-linejoin:round;stroke-miterlimit:10;" x1="256.065" y1="231.965" x2="271.47" y2="231.965"/>
				</g>
			</g>
			<g>
				
					<polyline style="fill:none;stroke:#263238;stroke-width:2.5;stroke-linecap:round;stroke-linejoin:round;stroke-miterlimit:10;" points="
					243.252,136.397 243.252,216.592 397.813,216.592 				"/>
				
					<path style="fill:#EC644E;stroke:#263238;stroke-width:2.5;stroke-linecap:round;stroke-linejoin:round;stroke-miterlimit:10;" d="
					M243.252,191.821c4.733,0,7.555-14.965,14.259-14.965c6.704,0,7.409,10.918,13.055,10.918c5.645,0,5.469-19.179,13.055-19.179
					s5.822,7.782,13.76,7.782c7.939,0,4.94-18.067,13.231-18.067c8.291,0,4.94,24.891,13.584,24.891
					c5.469,0,7.586-7.906,14.113-7.906c4.322,0,6.871,3.955,12.521,3.955c5.738,0,6.885-15.204,13.942-15.204
					c7.057,0,7.863,8.996,13.055,8.996c5.191,0,7.056-14.732,16.583-14.732v58.282H243.252V191.821z"/>
				
					<line style="fill:#EC644E;stroke:#263238;stroke-width:2.5;stroke-linecap:round;stroke-linejoin:round;stroke-miterlimit:10;" x1="239.507" y1="206.293" x2="397.813" y2="206.293"/>
				
					<line style="fill:#EC644E;stroke:#263238;stroke-width:2.5;stroke-linecap:round;stroke-linejoin:round;stroke-miterlimit:10;" x1="239.507" y1="195.354" x2="397.813" y2="195.354"/>
				
					<line style="fill:#EC644E;stroke:#263238;stroke-width:2.5;stroke-linecap:round;stroke-linejoin:round;stroke-miterlimit:10;" x1="239.507" y1="184.414" x2="397.813" y2="184.414"/>
				
					<line style="fill:#EC644E;stroke:#263238;stroke-width:2.5;stroke-linecap:round;stroke-linejoin:round;stroke-miterlimit:10;" x1="239.507" y1="173.475" x2="397.813" y2="173.475"/>
				
					<line style="fill:#EC644E;stroke:#263238;stroke-width:2.5;stroke-linecap:round;stroke-linejoin:round;stroke-miterlimit:10;" x1="239.507" y1="162.536" x2="397.813" y2="162.536"/>
				
					<line style="fill:#EC644E;stroke:#263238;stroke-width:2.5;stroke-linecap:round;stroke-linejoin:round;stroke-miterlimit:10;" x1="239.507" y1="151.596" x2="397.813" y2="151.596"/>
				
					<line style="fill:#EC644E;stroke:#263238;stroke-width:2.5;stroke-linecap:round;stroke-linejoin:round;stroke-miterlimit:10;" x1="239.507" y1="140.657" x2="397.813" y2="140.657"/>
			</g>
			
				<line style="fill:#EC644E;stroke:#263238;stroke-width:2.5;stroke-linecap:round;stroke-linejoin:round;stroke-miterlimit:10;" x1="290.893" y1="122.62" x2="346.427" y2="122.62"/>
		</g>
	</g>
</g>
<g id="Speech_Bubble">
	<g>
		
			<path style="fill:#FFFFFF;stroke:#263238;stroke-width:2.5;stroke-linecap:round;stroke-linejoin:round;stroke-miterlimit:10;" d="
			M433.182,265.873c-9.281-3.553-21.488-2.576-29.313,3.91c-6.969,5.772-9.248,16.205-5.947,24.53
			c3.937,9.928,15.288,15.343,25.568,13.624c0.681-0.115-0.594,4.655-3.558,7.337c-1.164,1.052-2.328,2.043-3.696,2.74
			c6.321-0.494,12.498-3.174,14.184-9.973c7.535-2.355,18.643-9.275,18.929-19.154C449.65,278.625,442.555,269.454,433.182,265.873z
			"/>
		<g>
			<path style="fill:#263238;" d="M414.87,287.299c0,1.358-1.101,2.46-2.46,2.46c-1.358,0-2.46-1.101-2.46-2.46
				s1.101-2.46,2.46-2.46C413.769,284.84,414.87,285.941,414.87,287.299z"/>
			<path style="fill:#263238;" d="M425.355,287.299c0,1.358-1.101,2.46-2.46,2.46c-1.359,0-2.46-1.101-2.46-2.46
				s1.101-2.46,2.46-2.46C424.254,284.84,425.355,285.941,425.355,287.299z"/>
			<circle style="fill:#263238;" cx="433.38" cy="287.299" r="2.46"/>
		</g>
	</g>
</g>
<g id="Character_2">
	<g>
		<g>
			<g>
				<g>
					<g>
						
							<path style="fill:#B5846B;stroke:#263238;stroke-width:2.5;stroke-linecap:round;stroke-linejoin:round;stroke-miterlimit:10;" d="
							M274.779,327.15c0.117-1.795-6.776-11.077-2.824-14.426c1.963-1.663,5.106,3.345,7.884,6.518
							c2.777,3.173,11.649,4.344,16.033,13.617L274.779,327.15z"/>
						<g>
							
								<path style="fill:#B5846B;stroke:#263238;stroke-width:2.5;stroke-linecap:round;stroke-linejoin:round;stroke-miterlimit:10;" d="
								M265.492,334.756c-3.013-2.631-7.471-7.251-11.455-11.72c-3.3-3.701-1.181-7.795,4.321-4.577
								c3.498,2.046,14.589,7.916,14.589,7.916L265.492,334.756z"/>
						</g>
						<g>
							
								<path style="fill:#B5846B;stroke:#263238;stroke-width:2.5;stroke-linecap:round;stroke-linejoin:round;stroke-miterlimit:10;" d="
								M283.768,352.217c0,0-13.428-12.238-17.887-14.561c-4.459-2.323-9.558-4.89-14.743-7.591c-5.173-2.695-3.756-6.58,1.945-5.81
								c4.382,0.592,8.505,1.36,15.274,1.229c8.31-0.161,13.576-0.821,16.578-0.005c3.944,1.072,4.59,1.872,6.567,3.48
								c3.688,3.001,10.462,7.901,10.462,7.901L283.768,352.217z"/>
							
								<path style="fill:none;stroke:#263238;stroke-width:2.5;stroke-linecap:round;stroke-linejoin:round;stroke-miterlimit:10;" d="
								M257.452,330.672c0,0,0.848-2.86-6.314-4.335"/>
						</g>
					</g>
				</g>
				<g>
					<path style="fill:#EC644E;" d="M340.903,373.201c0,0-12.142,20.315-16.769,21.767c-2.884,0.905-9.724,3.906-19.665-0.364
						c-9.297-3.994-33.737-43.648-33.737-43.648s1.9,6.391,17.342-10.619c6.849-7.545,11.035-4.385,15.042-10.734l14.257,18.815
						c0,0,16.307-24.288,29.203-25.269c8.548-0.65,15.476,1.388,15.476,1.388"/>
					
						<path style="fill:none;stroke:#263238;stroke-width:2.5;stroke-linecap:round;stroke-linejoin:round;stroke-miterlimit:10;" d="
						M340.903,373.201c0,0-12.142,20.315-16.769,21.767c-2.884,0.905-9.724,3.906-19.665-0.364
						c-9.297-3.994-33.737-43.648-33.737-43.648s1.9,6.391,17.342-10.619c6.849-7.545,11.035-4.385,15.042-10.734l14.257,18.815
						c0,0,16.307-24.288,29.203-25.269c8.548-0.65,15.476,1.388,15.476,1.388"/>
					<path style="fill:#263238;" d="M269.895,351.286c-1.55-1.834,4.45-6.42,4.45-6.42l4.438,4.298
						C278.783,349.165,271.188,352.816,269.895,351.286z"/>
					
						<path style="fill:none;stroke:#263238;stroke-width:2.5;stroke-linecap:round;stroke-linejoin:round;stroke-miterlimit:10;" d="
						M323.421,356.977c0,0-2.55-3.339-6.077-8.639"/>
					<path style="fill:#263238;" d="M303.645,328.706c-0.988-1.242-8.232,2.025-8.232,2.025l3.383,2.457
						C298.796,333.188,304.805,330.166,303.645,328.706z"/>
				</g>
			</g>
			<g>
				<g>
					
						<path style="fill:#FFFFFF;stroke:#263238;stroke-width:2.5;stroke-linecap:round;stroke-linejoin:round;stroke-miterlimit:10;" d="
						M333.401,362.938c-2.776,12.3-11.01,32.207-13.816,42.041c-2.806,9.834-0.697,8.267-0.697,8.267
						c2.372-1.695,27.346,8.098,40.991,10.679c25.38,4.801,44.774-8.496,54.474,0.093c3.431,3.039-3.104-34.922-2.998-39.014
						c0.59-22.592,0.975-43.837-10.441-54.002c-8.855-7.885-22.734-4.358-33.745-5.604
						C342.674,322.626,335.321,354.43,333.401,362.938z"/>
				</g>
				<g>
					<path style="fill:#263238;" d="M312.269,419.5c3.094-1.999,9.854,2.578,9.854,2.578l-2.664,1.922
						C319.46,424.001,310.705,420.511,312.269,419.5z"/>
					<path style="fill:#263238;" d="M414.715,431.439c-0.695-3.846-9.687-3.846-9.687-3.846l1.074,4.784
						C406.102,432.377,415.059,433.339,414.715,431.439z"/>
				</g>
				<g>
					<path style="fill:#EC644E;" d="M360.995,324.495c0,0-9.045,14.388-14.104,28.611c-5.059,14.223-11.29,75.169-11.29,75.169
						s-3.935,0-9.51-3.273c-4.259-2.5-9.321-7.737-13.207-5.801c0,0-3.704-2.825-0.614-8.727c2.636-5.036,7.03-17.938,10.551-26.561
						c3.521-8.624,8.752-34.01,19.995-49.157C351.421,323.161,360.995,324.495,360.995,324.495z"/>
					
						<path style="fill:none;stroke:#263238;stroke-width:2.5;stroke-linecap:round;stroke-linejoin:round;stroke-miterlimit:10;" d="
						M360.995,324.495c0,0-9.045,14.388-14.104,28.611c-5.059,14.223-11.29,75.169-11.29,75.169s-3.935,0-9.51-3.273
						c-4.259-2.5-9.321-7.737-13.207-5.801c0,0-3.704-2.825-0.614-8.727c2.636-5.036,7.03-17.938,10.551-26.561
						c2.491-6.101,5.837-20.59,11.563-33.909"/>
					
						<path style="fill:none;stroke:#263238;stroke-width:2.5;stroke-linecap:round;stroke-linejoin:round;stroke-miterlimit:10;" d="
						M330.822,350.324c0,0-0.077,5.203,0.664,7.005"/>
				</g>
				
					<path style="fill:#EC644E;stroke:#263238;stroke-width:2.5;stroke-linecap:round;stroke-linejoin:round;stroke-miterlimit:10;" d="
					M381.283,325.002c0,0-7.974,21.702-9.616,37.971c-2.213,21.924-3.65,69.581-3.65,69.581s9.383,1.786,39.683-3.622
					c10.387-1.854,5.804,2.483,5.804,2.483s5.2-0.152,5.2-7.589c0-7.437-3.74-34.619-3.931-38.179
					c-0.191-3.56,0.97-41.502-7.918-52.458C398.608,323.021,381.283,325.002,381.283,325.002z"/>
				<path style="fill:none;stroke:#263238;stroke-width:2.5;stroke-linecap:round;stroke-linejoin:round;stroke-miterlimit:10;" d="
					M386.943,396.838c0,0,3.244,11.66,19.535,13.074"/>
				<g>
					<g>
						<g>
							
								<path style="fill:#B5846B;stroke:#263238;stroke-width:2.5;stroke-linecap:round;stroke-linejoin:round;stroke-miterlimit:10;" d="
								M471.776,448.258c0,0,10.059,11.006,13.05,8.959c3.9-2.668-11.932-15.975-16.1-19.887L471.776,448.258z"/>
						</g>
						<g>
							<g>
								
									<path style="fill:#B5846B;stroke:#263238;stroke-width:2.5;stroke-linecap:round;stroke-linejoin:round;stroke-miterlimit:10;" d="
									M464.754,430.824c-3.639-5.669-8.026-12.009-8.026-12.009l-27.266,10.376c0,0,8.339,10.6,12.126,15.783
									c1.719,2.353,3.175,12.497,5.936,12.89c6.301,0.896,3.232-12.361,7.54-13.058c7.754-1.254,17.274,15.34,23.952,12.713
									C483.63,455.703,471.815,441.824,464.754,430.824z"/>
							</g>
							
								<path style="fill:#B5846B;stroke:#263238;stroke-width:2.5;stroke-linecap:round;stroke-linejoin:round;stroke-miterlimit:10;" d="
								M448.439,453.747c0,0,0.029-3.413-3.373-4.652"/>
						</g>
					</g>
					<g>
						<path style="fill:#EC644E;" d="M381.816,324.973c7.814-0.389,22.131-2.386,32.086,9.771
							c9.954,12.157,17.773,30.56,20.488,34.18c2.715,3.62,31.515,54.138,31.515,54.138c-8.703,1.127-8.188,8.745-14.885,10.837
							s-20.089,3.369-18.649,7.655c0,0-15.339-25.355-17.646-29.431c-1.035-1.828-17.787-39.872-23.37-53.654"/>
						<path style="fill:#FFFFFF;" d="M465.907,423.06c-2.164,0.279-3.753,0.964-5.029,1.86c-5.46-8.207-28.759-50.356-31.109-53.483
							c-2.941-3.922-11.411-23.861-22.196-37.03c-4.522-5.511-9.864-8.342-15.172-9.729c7.066,0.33,15.172,2.333,21.503,10.067
							c9.948,12.154,17.767,30.564,20.488,34.181C437.106,372.544,465.907,423.06,465.907,423.06z"/>
						
							<path style="fill:none;stroke:#263238;stroke-width:2.5;stroke-linecap:round;stroke-linejoin:round;stroke-miterlimit:10;" d="
							M381.816,324.973c7.814-0.389,22.131-2.386,32.086,9.771c9.954,12.157,17.773,30.56,20.488,34.18
							c2.715,3.62,31.515,54.138,31.515,54.138c-8.703,1.127-8.188,8.745-14.885,10.837s-20.089,3.369-18.649,7.655
							c0,0-15.339-25.355-17.646-29.431c-1.035-1.828-17.787-39.872-23.37-53.654"/>
						
							<path style="fill:none;stroke:#263238;stroke-width:2.5;stroke-linecap:round;stroke-linejoin:round;stroke-miterlimit:10;" d="
							M388.26,362.689c1.987,0.084,4.642,1.033,5.856,2.584"/>
						<path style="fill:#263238;" d="M432.125,442.433c1.051,1.529,6.908-0.878,6.908-0.878l-2.936-3.839
							C436.097,437.716,431.352,441.309,432.125,442.433z"/>
						<path style="fill:#263238;" d="M460.878,424.92l2.22,3.354c0,0,4.513-4.04,3.81-5.305
							C466.205,421.704,460.878,424.92,460.878,424.92z"/>
					</g>
				</g>
			</g>
			<g>
				
					<path style="fill:#FFFFFF;stroke:#263238;stroke-width:2.5;stroke-linecap:round;stroke-linejoin:round;stroke-miterlimit:10;" d="
					M369.315,320.577c-6.119,0.668-9.812,4.835-10.739,8.145c-0.639,2.283-0.492,6.816,0.211,7.097
					c0.703,0.281,5.467-3.437,5.467-3.437s1.208,5.615,2.895,5.685c1.686,0.07,9.615-3.553,11.102-9.943
					C379.738,321.737,373.672,320.102,369.315,320.577z"/>
				<path style="fill:#263238;" d="M365.01,327.593c0,0-3.626,3.866-1.234,4.79c3.751,1.448,10.104-3.84,10.104-3.84L365.01,327.593
					z"/>
				<g>
					<g>
						<path style="fill:#B5846B;" d="M379.793,321.135c2.517-6.293,0.26-13.113-5.041-15.233c-5.301-2.12-11.638,1.263-14.155,7.556
							c-2.517,6.293-0.26,13.113,5.041,15.233C370.939,330.811,377.276,327.428,379.793,321.135z"/>
						<path style="fill:#FFFFFF;" d="M365.639,328.691c1.48,0.59,3.044,0.754,4.58,0.539c-0.749-0.08-1.487-0.261-2.21-0.547
							c-5.023-2.012-7.163-8.476-4.779-14.444c2.388-5.968,8.396-9.173,13.42-7.164c0.126,0.052,0.256,0.104,0.378,0.164
							c-0.677-0.55-1.439-1.004-2.276-1.337c-5.299-2.118-11.637,1.264-14.154,7.557C358.08,319.752,360.336,326.57,365.639,328.691
							z"/>
						
							<path style="fill:none;stroke:#263238;stroke-width:2.5;stroke-linecap:round;stroke-linejoin:round;stroke-miterlimit:10;" d="
							M379.793,321.135c2.517-6.293,0.26-13.113-5.041-15.233c-5.301-2.12-11.638,1.263-14.155,7.556
							c-2.517,6.293-0.26,13.113,5.041,15.233C370.939,330.811,377.276,327.428,379.793,321.135z"/>
					</g>
					<g>
						<path style="fill:#263238;" d="M379.26,321.737c0,0-4.076-2.117-3.945-6.668c0,0-6.856-1.722-5.556-7.174
							c0,0-3.972,1.538-5.415-0.604c0,0,7.166-6.62,13.685,0.194C384.547,314.299,379.26,321.737,379.26,321.737z"/>
						<path style="fill:#263238;" d="M362.051,304.123c0,2.128,1.725,3.854,3.854,3.854c2.128,0,3.854-1.725,3.854-3.854
							c0-2.128-1.725-3.854-3.854-3.854C363.777,300.269,362.051,301.994,362.051,304.123z"/>
					</g>
				</g>
				<path style="fill:#263238;" d="M371.695,302.775c0.468,1.207,2.521,0.187,4.073,0.68c1.553,0.494,2.85,1.77,3.554,1.08
					c0.503-0.492,0.138-3.082-3.423-3.783C373.249,300.231,371.418,302.06,371.695,302.775z"/>
			</g>
		</g>
		<g>
			<g>
				<g>
					<g>
						
							<polygon style="fill:#EC644E;stroke:#263238;stroke-width:2.5;stroke-linecap:round;stroke-linejoin:round;stroke-miterlimit:10;" points="
							330.722,461.773 347.219,469.067 382.703,450.082 361.741,445.177 						"/>
					</g>
					<g>
						
							<polygon style="fill:#FFFFFF;stroke:#263238;stroke-width:2.5;stroke-linecap:round;stroke-linejoin:round;stroke-miterlimit:10;" points="
							340.528,437.183 361.741,445.176 330.719,461.774 306.835,459.097 						"/>
						
							<line style="fill:none;stroke:#263238;stroke-width:2.5;stroke-linecap:round;stroke-linejoin:round;stroke-miterlimit:10;" x1="324.243" y1="452.392" x2="344.954" y2="438.851"/>
					</g>
					
						<line style="fill:none;stroke:#263238;stroke-width:2.5;stroke-linecap:round;stroke-linejoin:round;stroke-miterlimit:10;" x1="353.481" y1="454.497" x2="364.357" y2="448.187"/>
					
						<line style="fill:none;stroke:#263238;stroke-width:2.5;stroke-linecap:round;stroke-linejoin:round;stroke-miterlimit:10;" x1="357.118" y1="456.057" x2="367.994" y2="449.748"/>
				</g>
				
					<path style="fill:#9ABAE3;stroke:#263238;stroke-width:2.5;stroke-linecap:round;stroke-linejoin:round;stroke-miterlimit:10;" d="
					M363.564,410.996c0,0-61.992-27.195-81.15-27.883c-19.158-0.688-32.829,11.309-32.168,27.194
					c0.661,15.885,12.852,34.301,64.588,56.15c0,0-0.748-2.696,1.729-4.931c2.477-2.235,26.374-2.409,32.249-13.329
					s6.17-8.307,6.17-8.307s-10.57-15.913-49.671-29.435l33.084,14.263L363.564,410.996z"/>
			</g>
			<g>
				<g>
					<path style="fill:#9ABAE3;" d="M356.432,397.451c0,0.971-0.676,1.779-1.583,1.987c-0.144,0.035-0.3,0.052-0.456,0.052h-98.564
						l-0.017-0.052l-12.982-44.455c-0.254-0.872,0.404-1.75,1.317-1.75h61.648c0.612,0,1.144,0.399,1.317,0.982l6.262,21.445
						l2.889,9.879l2.328,7.984l0.555,1.889h35.246c0.566,0,1.074,0.225,1.444,0.595
						C356.206,396.377,356.432,396.885,356.432,397.451z"/>
					<path style="fill:#FFFFFF;" d="M356.431,397.451c0,0.972-0.676,1.783-1.581,1.986c-0.144,0.034-0.304,0.051-0.456,0.051
						h-98.562l-0.017-0.051l-12.526-42.878l-0.456-1.572c-0.253-0.879,0.406-1.758,1.319-1.758h61.643
						c0.617,0,1.15,0.406,1.319,0.989l6.263,21.444l2.891,9.881l2.324,7.979l0.558,1.893h35.246c0.566,0,1.073,0.22,1.445,0.592
						C356.202,396.378,356.431,396.885,356.431,397.451z"/>
					<path style="fill:#9ABAE3;" d="M352.889,399.488h-97.058l-0.017-0.051l-12.526-42.878h59.411c0.617,0,1.15,0.397,1.319,0.98
						l6.263,21.443l2.891,9.881l2.324,7.979l0.558,1.893H351.3c0.566,0,1.073,0.228,1.445,0.592
						C352.796,399.379,352.847,399.429,352.889,399.488z"/>
					
						<path style="fill:none;stroke:#263238;stroke-width:2.5;stroke-linecap:round;stroke-linejoin:round;stroke-miterlimit:10;" d="
						M356.432,397.451c0,0.971-0.676,1.779-1.583,1.987c-0.144,0.035-0.3,0.052-0.456,0.052h-98.564l-0.017-0.052l-12.982-44.455
						c-0.254-0.872,0.404-1.75,1.317-1.75h61.648c0.612,0,1.144,0.399,1.317,0.982l6.262,21.445l2.889,9.879l2.328,7.984
						l0.555,1.889h35.246c0.566,0,1.074,0.225,1.444,0.595C356.206,396.377,356.432,396.885,356.432,397.451z"/>
					
						<polyline style="fill:none;stroke:#263238;stroke-width:2.5;stroke-linecap:round;stroke-linejoin:round;stroke-miterlimit:10;" points="
						243.41,356.973 303.766,357.042 316.095,398.677 					"/>
				</g>
				
					<polygon style="fill:#263238;stroke:#263238;stroke-width:2.5;stroke-linecap:round;stroke-linejoin:round;stroke-miterlimit:10;" points="
					285.805,382.259 274.207,382.259 272.969,376.362 284.568,376.362 				"/>
			</g>
			<g>
				<g>
					<g>
						
							<polygon style="fill:#EC644E;stroke:#263238;stroke-width:2.5;stroke-linecap:round;stroke-linejoin:round;stroke-miterlimit:10;" points="
							296.308,473.702 285.675,484.949 243.201,469.423 263.267,461.624 						"/>
					</g>
					<g>
						
							<polygon style="fill:#FFFFFF;stroke:#263238;stroke-width:2.5;stroke-linecap:round;stroke-linejoin:round;stroke-miterlimit:10;" points="
							283.148,450.732 263.267,461.623 296.312,473.702 319.583,467.699 						"/>
						
							<line style="fill:none;stroke:#263238;stroke-width:2.5;stroke-linecap:round;stroke-linejoin:round;stroke-miterlimit:10;" x1="301.407" y1="463.505" x2="279" y2="453.005"/>
					</g>
					
						<line style="fill:none;stroke:#263238;stroke-width:2.5;stroke-linecap:round;stroke-linejoin:round;stroke-miterlimit:10;" x1="272.754" y1="469.692" x2="261.099" y2="464.972"/>
					
						<line style="fill:none;stroke:#263238;stroke-width:2.5;stroke-linecap:round;stroke-linejoin:round;stroke-miterlimit:10;" x1="269.372" y1="471.748" x2="257.717" y2="467.027"/>
				</g>
				<g>
					<path style="fill:#9ABAE3;" d="M349.057,462.236c0,0,7.505,5.555,19.692,8.667c12.188,3.112,37.567-3.458,42.753-28.871
						c5.186-25.413-10.663-44.024-17.193-48.882c-12.521-9.315-26.631-8.946-38.3-4.019c-11.669,4.927-77.01,57.233-77.01,58.53
						c0,1.297-1.207,5.673,2.371,10.538c4.98,6.772,17.717,13.017,19.209,15.381c2.852,4.518,0.714,6.882,0.714,6.882
						s5.363,0.423,10.54-0.966C322.951,476.515,340.001,469.482,349.057,462.236z"/>
					<path style="fill:#FFFFFF;" d="M411.505,442.029c-4.818,23.574-26.996,30.935-39.912,29.389
						c12.721-1.361,28.788-9.745,32.795-29.389c5.19-25.408-10.658-44.019-17.192-48.88c-5.933-4.421-12.239-6.66-18.468-7.269
						c8.452-0.786,17.361,1.15,25.585,7.269C400.838,398.009,416.686,416.621,411.505,442.029z"/>
					
						<path style="fill:none;stroke:#263238;stroke-width:2.5;stroke-linecap:round;stroke-linejoin:round;stroke-miterlimit:10;" d="
						M349.057,462.236c0,0,7.505,5.555,19.692,8.667c12.188,3.112,37.567-3.458,42.753-28.871
						c5.186-25.413-10.663-44.024-17.193-48.882c-12.521-9.315-26.631-8.946-38.3-4.019c-11.669,4.927-77.01,57.233-77.01,58.53
						c0,1.297-1.207,5.673,2.371,10.538c4.98,6.772,17.717,13.017,19.209,15.381c2.852,4.518,0.714,6.882,0.714,6.882
						s5.363,0.423,10.54-0.966C322.951,476.515,340.001,469.482,349.057,462.236z"/>
					
						<path style="fill:none;stroke:#263238;stroke-width:2.5;stroke-linecap:round;stroke-linejoin:round;stroke-miterlimit:10;" d="
						M349.057,462.236c9.635-4.573,29.782-29.149,29.782-29.149"/>
					
						<path style="fill:none;stroke:#263238;stroke-width:2.5;stroke-linecap:round;stroke-linejoin:round;stroke-miterlimit:10;" d="
						M372.551,441.15c0,0,4.827-0.661,8.146-3.963"/>
				</g>
			</g>
		</g>
	</g>
</g>
<g id="Character_1">
	<g>
		<g>
			<g>
				
					<rect x="97.441" y="348.651" transform="matrix(-1 -1.224647e-16 1.224647e-16 -1 259.5188 804.4805)" style="fill:#9ABAE3;" width="64.637" height="107.178"/>
				<rect x="97.443" y="348.649" style="fill:#FFFFFF;" width="4.386" height="107.183"/>
				
					<rect x="97.441" y="348.651" transform="matrix(-1 -1.224647e-16 1.224647e-16 -1 259.5188 804.4805)" style="fill:none;stroke:#263238;stroke-width:2.5;stroke-linecap:round;stroke-linejoin:round;stroke-miterlimit:10;" width="64.637" height="107.178"/>
				
					<line style="fill:none;stroke:#263238;stroke-width:2.5;stroke-linecap:round;stroke-linejoin:round;stroke-miterlimit:10;" x1="113.369" y1="351.761" x2="113.369" y2="455.829"/>
			</g>
			<g>
				
					<rect x="167.228" y="377.783" transform="matrix(-1 -1.224647e-16 1.224647e-16 -1 399.0602 833.6133)" style="fill:#9ABAE3;" width="64.605" height="78.047"/>
				<rect x="167.229" y="377.782" style="fill:#FFFFFF;" width="4.384" height="78.05"/>
				
					<rect x="167.228" y="377.783" transform="matrix(-1 -1.224647e-16 1.224647e-16 -1 399.0602 833.6133)" style="fill:none;stroke:#263238;stroke-width:2.5;stroke-linecap:round;stroke-linejoin:round;stroke-miterlimit:10;" width="64.605" height="78.047"/>
				
					<line style="fill:none;stroke:#263238;stroke-width:2.5;stroke-linecap:round;stroke-linejoin:round;stroke-miterlimit:10;" x1="183.148" y1="380.048" x2="183.148" y2="455.83"/>
			</g>
			<g>
				
					<rect x="27.564" y="316.815" transform="matrix(-1 -1.224647e-16 1.224647e-16 -1 119.7653 772.6436)" style="fill:#9ABAE3;" width="64.637" height="139.013"/>
				<rect x="27.566" y="316.813" style="fill:#FFFFFF;" width="4.387" height="139.019"/>
				
					<rect x="27.564" y="316.815" transform="matrix(-1 -1.224647e-16 1.224647e-16 -1 119.7653 772.6436)" style="fill:none;stroke:#263238;stroke-width:2.5;stroke-linecap:round;stroke-linejoin:round;stroke-miterlimit:10;" width="64.637" height="139.013"/>
				
					<line style="fill:none;stroke:#263238;stroke-width:2.5;stroke-linecap:round;stroke-linejoin:round;stroke-miterlimit:10;" x1="43.493" y1="320.849" x2="43.493" y2="455.828"/>
			</g>
		</g>
		<g>
			<g>
				<g>
					<g>
						<g>
							
								<polygon style="fill:#263238;stroke:#263238;stroke-width:2.5;stroke-linecap:round;stroke-linejoin:round;stroke-miterlimit:10;" points="
								113.217,410.446 103.687,421.405 110.023,426.915 113.994,424.535 115.692,431.845 143.276,455.832 140.34,434.033 							
								"/>
						</g>
						<g>
							
								<path style="fill:#F0BA92;stroke:#263238;stroke-width:2.5;stroke-linecap:round;stroke-linejoin:round;stroke-miterlimit:10;" d="
								M153.891,421.1l-13.55,12.932c0,0-0.502,9.188-5.089,7.686c-4.835-1.583-22.038-31.275-22.038-31.275l10.369-14.861
								L153.891,421.1z"/>
						</g>
					</g>
					<g>
						<path style="fill:#EC644E;" d="M178.092,303.702l3.213,1.618c10.855,0.163,33.928-0.074,39.317,2.085
							c8.228,3.296,20.03,14.605,16.26,31.714c-4.463,20.257-70.385,76.866-71.661,78.858c-4.156,6.486-8.456,8.216-8.456,8.216
							c-6.359-8.216-15.673-9.669-21.666-12.132c-5.993-2.463-16.046-11.549-18.945-11.936c-2.9-0.387-3.673,1.353-3.673,1.353
							s22.909-36.54,33.329-47.718c7.565-8.114,24.667-14.321,24.667-14.321s-38.057,10.696-48.336-5.026
							c-8.595-13.146-0.38-32.667-0.38-32.667L178.092,303.702z"/>
						<path style="fill:#FFFFFF;" d="M236.88,339.118c-4.465,20.257-70.38,76.868-71.662,78.857c-4.151,6.488-8.45,8.214-8.45,8.214
							c-0.741-0.959-1.526-1.823-2.337-2.607c1.404-1.256,3.052-3.069,4.683-5.607c1.273-1.988,67.198-58.6,71.662-78.857
							c3.767-17.109-8.031-28.419-16.263-31.715c-5.389-2.154-28.463-1.918-39.319-2.084l-3.2-1.613h6.096l3.218,1.613
							c10.857,0.166,33.921-0.07,39.311,2.084C228.849,310.699,240.647,322.009,236.88,339.118z"/>
						
							<path style="fill:none;stroke:#263238;stroke-width:2.5;stroke-linecap:round;stroke-linejoin:round;stroke-miterlimit:10;" d="
							M178.092,303.702l3.213,1.618c10.855,0.163,33.928-0.074,39.317,2.085c8.228,3.296,20.03,14.605,16.26,31.714
							c-4.463,20.257-70.385,76.866-71.661,78.858c-4.156,6.486-8.456,8.216-8.456,8.216c-6.359-8.216-15.673-9.669-21.666-12.132
							c-5.993-2.463-16.046-11.549-18.945-11.936c-2.9-0.387-3.673,1.353-3.673,1.353s22.909-36.54,33.329-47.718
							c7.565-8.114,24.667-14.321,24.667-14.321s-38.057,10.696-48.336-5.026c-8.595-13.146-0.38-32.667-0.38-32.667
							L178.092,303.702z"/>
						<path style="fill:#263238;" d="M115.92,407.436c0,0-4.045-2.367-4.323-3.523c-0.277-1.156,2.491-1.667,6.906-0.233
							L115.92,407.436z"/>
						<path style="fill:#263238;" d="M152.322,422.802l-1.918,2.161c0,0,5.564,3.312,6.665,2.269
							C158.171,426.188,155.904,423.555,152.322,422.802z"/>
					</g>
				</g>
				<g>
					<g>
						
							<polygon style="fill:#263238;stroke:#263238;stroke-width:2.5;stroke-linecap:round;stroke-linejoin:round;stroke-miterlimit:10;" points="
							120.989,441.309 120.989,455.832 129.386,455.832 130.82,451.43 136.899,455.832 173.453,455.832 156.934,441.309 						"/>
					</g>
					<g>
						
							<path style="fill:#F0BA92;stroke:#263238;stroke-width:2.5;stroke-linecap:round;stroke-linejoin:round;stroke-miterlimit:10;" d="
							M161.617,423.883l-4.683,17.426c0,0,5.65,7.262,1.203,9.139c-4.688,1.978-37.152-9.139-37.152-9.139l1.643-17.426H161.617z"/>
					</g>
				</g>
				<g>
					
						<path style="fill:#EC644E;stroke:#263238;stroke-width:2.5;stroke-linecap:round;stroke-linejoin:round;stroke-miterlimit:10;" d="
						M150.865,303.702H92.694c-7.826,27.297-0.032,39.503,11.458,44.6c16.837,7.469,33.172-1.298,35.33,0.676
						c0,0-6.919,7.07-10.923,16.819c-7.17,17.461-12.339,48.984-13.886,62.241c-0.561,4.811,2.45,5.647,2.45,5.647
						c0-3.968,7.007-4.886,27.191,0.694c13.049,3.607,18.217-1.466,22.86,1.288c0,0,31.95-84.513,31.898-102.782
						c-0.03-10.537-7.391-18.125-10.149-20.588c-8.12-7.25-36.393-5.821-36.393-5.821L150.865,303.702z"/>
					<path style="fill:#263238;" d="M121.516,435.682c0,0-4.272-0.234-4.997-1.176c-0.725-0.942,1.402-2.456,5.824-3.307
						L121.516,435.682z"/>
					<path style="fill:#263238;" d="M158.784,435.955l-0.87,2.755c0,0,9.328-0.58,9.908-1.982
						C168.402,435.327,162.36,435.182,158.784,435.955z"/>
					
						<path style="fill:none;stroke:#263238;stroke-width:2.5;stroke-linecap:round;stroke-linejoin:round;stroke-miterlimit:10;" d="
						M130.747,307c0,0-0.349,2.921,6.604,4.547c6.953,1.626,33.958,0.629,42.059,4.608c8.101,3.978,10.068,14.82,8.795,23.608
						c-1.273,8.788-24.969,84.119-24.969,84.119"/>
					
						<path style="fill:none;stroke:#263238;stroke-width:2.5;stroke-linecap:round;stroke-linejoin:round;stroke-miterlimit:10;" d="
						M139.482,348.977c3.338-3.229,10.332-5.122,10.332-5.122"/>
				</g>
				<path style="fill:none;stroke:#FFFFFF;stroke-width:2.5;stroke-linecap:round;stroke-linejoin:round;stroke-miterlimit:10;" d="
					M274.128,296.725"/>
			</g>
			<g>
				<g>
					<g>
						<g>
							
								<path style="fill:#FCD8C3;stroke:#263238;stroke-width:2.5;stroke-linecap:round;stroke-linejoin:round;stroke-miterlimit:10;" d="
								M221.919,296.367c0,0,10.241,9.333,13.309,5.859c3.999-4.528-12.065-19.827-18.456-23.374L221.919,296.367z"/>
						</g>
						<g>
							<g>
								
									<path style="fill:#FCD8C3;stroke:#263238;stroke-width:2.5;stroke-linecap:round;stroke-linejoin:round;stroke-miterlimit:10;" d="
									M211.662,274.586c-6.624-5.505-28.371-8.051-28.371-8.051l-1.326,31.394c0,0,13.129,2.434,14.863,3.258
									c1.543,0.736,12.621,10.221,15.549,9.234c5.235-1.764-5.108-15.393-4.451-15.689c5.259-2.372,15.762,12.567,20.095,10.886
									C233.885,303.342,223.266,284.231,211.662,274.586z"/>
							</g>
							
								<path style="fill:#FCD8C3;stroke:#263238;stroke-width:2.5;stroke-linecap:round;stroke-linejoin:round;stroke-miterlimit:10;" d="
								M211.573,308.595c0,0-2.953-8.581-10.771-4.852"/>
						</g>
					</g>
					<g>
						<g>
							<g>
								
									<path style="fill:#FFFFFF;stroke:#263238;stroke-width:2.5;stroke-linecap:round;stroke-linejoin:round;stroke-miterlimit:10;" d="
									M149.555,211.228c0,0,15.825-4.45,25.603,3.143c11.298,8.773,5.214,47.723,8.745,53.428c0,0,19.824-0.448,21.227-0.465
									c1.403-0.017,0.193,5.712-5.21,16.712c-5.404,10.999-9.171,16.557-7.193,19.055c0,0-24.231-3.985-33.984-9.484
									c-7.491-4.223-14.095-42.533-14.095-42.533"/>
							</g>
						</g>
					</g>
				</g>
				<g>
					<g>
						<g>
							<path style="fill:#FFFFFF;" d="M115.424,212.586c-17.83,9.321-17.846,36.955-21.022,58.928
								c-1.907,13.196-13.563,28.406-10.766,36.334c0,0,1.789-3.007,15.304-3.057c8.55-0.031,23.583,6.06,46.489,7.586
								c26.659,1.776,40.932-12.061,43.258-10.142c0,0,2.189,1.4,0-8.949c-0.754-3.565-4.557-13.772-6.731-29.792
								c0,0,1.928-4.29,1.684-5.822c-1.152-7.242-5.662-16.998-7.96-23.709c-2.247-6.563-5.155-12.481-8.945-16.985
								c-3.848-4.574-5.46-7.899-20.733-6.49C134.589,211.542,126.293,206.904,115.424,212.586z"/>
						</g>
					</g>
					<g>
						<g>
							
								<path style="fill:none;stroke:#263238;stroke-width:2.5;stroke-linecap:round;stroke-linejoin:round;stroke-miterlimit:10;" d="
								M165.776,210.423c-7.402-1.414-14.499-0.421-19.772,0.065c-11.415,1.053-19.71-3.585-30.58,2.097
								c-17.83,9.321-17.846,36.955-21.022,58.928c-1.907,13.196-13.563,28.406-10.766,36.334c0,0,1.221-2.964,13.472-3.083
								c8.413-0.081,24.255,6.009,48.321,7.613c26.659,1.776,40.932-12.061,43.258-10.142c0,0,1.623,1.504,0-8.949
								c-1.207-7.771-6.731-29.792-6.731-29.792s1.598-2.37,1.453-7.092c-0.145-4.722-6.882-20.078-6.882-20.078"/>
						</g>
					</g>
					<path style="fill:#263238;" d="M82.706,307.76c-0.752,2.653,8.023,3.48,8.023,3.48l1.663-5.581
						C92.392,305.658,83.142,306.222,82.706,307.76z"/>
					
						<path style="fill:none;stroke:#263238;stroke-width:2.5;stroke-linecap:round;stroke-linejoin:round;stroke-miterlimit:10;" d="
						M139.848,270.039c0,0,13.528-5.529,30.058-4.301"/>
				</g>
				<path style="fill:#263238;" d="M188.688,302.236c-1.598-1.088-6.806,0.304-6.806,0.304l0.864,3.824
					C182.746,306.365,190.193,303.261,188.688,302.236z"/>
				<g>
					<g>
						
							<path style="fill:#F0BA92;stroke:#263238;stroke-width:2.5;stroke-linecap:round;stroke-linejoin:round;stroke-miterlimit:10;" d="
							M134.468,274.064c1.814,0.591,9.412,1.363,16.427,4.197c23.814,9.62,22.73,23.922,18.273,22.137c0,0,1.346,1.845-0.446,4.433
							c-0.405,0.584-3.373,2.684-6.714-2.041c0,0,2.26,4.961-1.342,5.494c-2.838,0.421-4.662-3.605-12.123-6.388
							c-3.704,1.163-11.002,1.364-17.151-0.489c-2.268-0.684-7.763-2.94-7.135-2.754
							C123.054,298.261,124.755,278.256,134.468,274.064z"/>
						
							<path style="fill:none;stroke:#263238;stroke-width:2.5;stroke-linecap:round;stroke-linejoin:round;stroke-miterlimit:10;" d="
							M162.007,302.789c-1.896-2.904-6.661-7.046-6.661-7.046"/>
						
							<path style="fill:none;stroke:#263238;stroke-width:2.5;stroke-linecap:round;stroke-linejoin:round;stroke-miterlimit:10;" d="
							M169.168,300.397c-1.629-3.188-7.787-9.102-7.787-9.102"/>
					</g>
					
						<path style="fill:#FFFFFF;stroke:#263238;stroke-width:2.5;stroke-linecap:round;stroke-linejoin:round;stroke-miterlimit:10;" d="
						M138.008,210.466c-24.397-5.219-34.517,8.235-43.946,24.41c-9.429,16.175-22.888,41.512-17.947,52.945
						c0.669,1.549,4.895,9.575,14.729,11.792c13.506,3.044,40.164,6.294,40.164,6.294s-4.707-2.991,0.116-16.413
						c5.226-14.543,5.1-17.225,5.1-17.225s-14.478-4.67-22.78-5.429"/>
					
						<path style="fill:none;stroke:#263238;stroke-width:2.5;stroke-linecap:round;stroke-linejoin:round;stroke-miterlimit:10;" d="
						M116.787,267.011c0,0,4.554-11.998,7.133-17.643"/>
					<path style="fill:#263238;" d="M130.896,306.567c1.972,0.659,2.176-5.295,2.176-5.295l-4.106-0.715
						C128.967,300.558,129.252,306.018,130.896,306.567z"/>
					
						<line style="fill:none;stroke:#263238;stroke-width:2.5;stroke-linecap:round;stroke-linejoin:round;stroke-miterlimit:10;" x1="121.857" y1="254.88" x2="125.983" y2="251.667"/>
				</g>
				<g>
					<g>
						<path style="fill:#9ABAE3;" d="M133.165,309.291c0,1.001,0.697,1.836,1.633,2.05c0.149,0.036,0.31,0.054,0.471,0.054h101.688
							l0.018-0.054l13.393-45.864c0.262-0.9-0.417-1.806-1.359-1.806h-63.602c-0.632,0-1.18,0.411-1.359,1.013l-6.461,22.125
							l-2.98,10.192l-2.402,8.237l-0.572,1.949h-36.364c-0.584,0-1.109,0.233-1.49,0.614
							C133.398,308.182,133.165,308.707,133.165,309.291z"/>
						<g>
							<path style="fill:#FFFFFF;" d="M247.94,266.986c0.262-0.9-0.417-1.806-1.359-1.806h-62.678l0.145-0.496
								c0.179-0.602,0.727-1.013,1.359-1.013h63.602c0.942,0,1.621,0.906,1.359,1.806l-13.393,45.864l-0.018,0.054h-1.985
								L247.94,266.986z"/>
						</g>
						
							<path style="fill:none;stroke:#263238;stroke-width:2.5;stroke-linecap:round;stroke-linejoin:round;stroke-miterlimit:10;" d="
							M133.165,309.291c0,1.001,0.697,1.836,1.633,2.05c0.149,0.036,0.31,0.054,0.471,0.054h101.688l0.018-0.054l13.393-45.864
							c0.262-0.9-0.417-1.806-1.359-1.806h-63.602c-0.632,0-1.18,0.411-1.359,1.013l-6.461,22.125l-2.98,10.192l-2.402,8.237
							l-0.572,1.949h-36.364c-0.584,0-1.109,0.233-1.49,0.614C133.398,308.182,133.165,308.707,133.165,309.291z"/>
						
							<polyline style="fill:none;stroke:#263238;stroke-width:2.5;stroke-linecap:round;stroke-linejoin:round;stroke-miterlimit:10;" points="
							249.769,267.529 187.501,267.601 174.78,310.556 						"/>
					</g>
					
						<polygon style="fill:#263238;stroke:#263238;stroke-width:2.5;stroke-linecap:round;stroke-linejoin:round;stroke-miterlimit:10;" points="
						206.03,293.617 217.996,293.617 219.273,287.533 207.307,287.533 					"/>
				</g>
				
					<path style="fill:#F0BA92;stroke:#263238;stroke-width:2.5;stroke-linecap:round;stroke-linejoin:round;stroke-miterlimit:10;" d="
					M128.517,209.71c0,0,21.84,25.041,29.238,24.534c7.398-0.507,3.626-24.283,3.626-24.283s-6.456,2.103-12.604,1.685
					C142.63,211.228,133.626,209.443,128.517,209.71z"/>
				<g>
					<path style="fill:#263238;" d="M151.816,214.403c0,0,1.7,5.213-0.946,5.028c-4.149-0.289-7.779-8.032-7.779-8.032
						L151.816,214.403z"/>
					<g>
						<g>
							<path style="fill:#F0BA92;" d="M141.075,203.473c-0.027-7.011,4.739-12.713,10.644-12.735
								c5.906-0.022,10.714,5.643,10.741,12.654c0.027,7.011-4.739,12.712-10.644,12.735
								C145.91,216.149,141.102,210.484,141.075,203.473z"/>
							<path style="fill:#FFFFFF;" d="M151.815,216.127c-1.648,0.005-3.215-0.432-4.61-1.224c0.751,0.208,1.529,0.315,2.333,0.315
								c5.598-0.024,10.115-5.428,10.092-12.076c-0.027-6.649-4.586-12.017-10.183-11.997c-0.141,0.002-0.286,0.003-0.425,0.014
								c0.86-0.272,1.766-0.418,2.698-0.42c5.903-0.021,10.713,5.644,10.74,12.654C162.487,210.404,157.723,216.103,151.815,216.127
								z"/>
							
								<path style="fill:none;stroke:#263238;stroke-width:2.5;stroke-linecap:round;stroke-linejoin:round;stroke-miterlimit:10;" d="
								M141.075,203.473c-0.027-7.011,4.739-12.713,10.644-12.735c5.906-0.022,10.714,5.643,10.741,12.654
								c0.027,7.011-4.739,12.712-10.644,12.735C145.91,216.149,141.102,210.484,141.075,203.473z"/>
						</g>
						<path style="fill:#263238;" d="M141.207,205.449c0,0,16.69,1.33,16.64-11.445l4.419,7.03c0,0,5.651-9.847-4.287-9.492
							c0,0-7.149-3.626-12.184,0.479C138.541,197.936,141.207,205.449,141.207,205.449z"/>
					</g>
					<path style="fill:#263238;" d="M145.43,197.271c-3.816-2.156-4.033-11.883-10.607-12.744
						c-6.601-0.865-6.846,11.372-12.805,11.103c-5.959-0.269-16.416-7.04-23.255-2.265c-6.839,4.775-9.249,18.863-0.945,21.673
						c9.03,3.056,9.871-13.374,16.781-13.478c5.755-0.087,8.94,4.91,12.47,3.656c5.153-1.83,4.242-12.133,7.649-12.314
						c2.58-0.137,3.966,5.135,8.672,7.692L145.43,197.271z"/>
				</g>
			</g>
		</g>
	</g>
</g>
</svg>
